<svg xmlns="http://www.w3.org/2000/svg" xmlns:oryx="http://oryx-editor.org" id="_24945298-A203-4D99-9F35-01789C7797DC" width="643" height="265.125" xmlns:xlink="http://www.w3.org/1999/xlink" xmlns:svg="http://www.w3.org/2000/svg"><defs><marker id="_C11BDEE5-33E4-4CE7-806B-3863889A7FA5start" refX="1" refY="5" markerUnits="userSpaceOnUse" markerWidth="17" markerHeight="11" orient="auto" fill="#000000" stroke="#000000"> 	  		<path id="_C11BDEE5-33E4-4CE7-806B-3863889A7FA5conditional" d="M 0 5 L 8 0 L 16 5 L 8 10 L 0 5" fill="white" stroke="#000000" stroke-width="1" display="none"/> 			<path id="_C11BDEE5-33E4-4CE7-806B-3863889A7FA5default" d="M 5 0 L 11 10" fill="white" stroke="#000000" stroke-width="1" display="none"/> 	  	</marker><marker id="_C11BDEE5-33E4-4CE7-806B-3863889A7FA5end" refX="15" refY="6" markerUnits="userSpaceOnUse" markerWidth="15" markerHeight="12" orient="auto" fill="#000000" stroke="#000000"> 	  		<path id="_C11BDEE5-33E4-4CE7-806B-3863889A7FA5frame2" d="M 0 1 L 15 6 L 0 11z" fill="#000000" stroke="#000000" stroke-linejoin="round" stroke-width="2"/> 	  	</marker><marker id="_61C30021-580B-4CC1-AE1D-486CA1BA66C2start" refX="1" refY="5" markerUnits="userSpaceOnUse" markerWidth="17" markerHeight="11" orient="auto" fill="#000000" stroke="#000000"> 	  		<path id="_61C30021-580B-4CC1-AE1D-486CA1BA66C2conditional" d="M 0 5 L 8 0 L 16 5 L 8 10 L 0 5" fill="white" stroke="#000000" stroke-width="1" display="none"/> 			<path id="_61C30021-580B-4CC1-AE1D-486CA1BA66C2default" d="M 5 0 L 11 10" fill="white" stroke="#000000" stroke-width="1" display="none"/> 	  	</marker><marker id="_61C30021-580B-4CC1-AE1D-486CA1BA66C2end" refX="15" refY="6" markerUnits="userSpaceOnUse" markerWidth="15" markerHeight="12" orient="auto" fill="#000000" stroke="#000000"> 	  		<path id="_61C30021-580B-4CC1-AE1D-486CA1BA66C2frame2" d="M 0 1 L 15 6 L 0 11z" fill="#000000" stroke="#000000" stroke-linejoin="round" stroke-width="2"/> 	  	</marker><marker id="_B883E479-CDA0-426E-9358-42BA0ABC1AADstart" refX="1" refY="5" markerUnits="userSpaceOnUse" markerWidth="17" markerHeight="11" orient="auto" fill="#000000" stroke="#000000"> 	  		<path id="_B883E479-CDA0-426E-9358-42BA0ABC1AADconditional" d="M 0 5 L 8 0 L 16 5 L 8 10 L 0 5" fill="white" stroke="#000000" stroke-width="1" display="none"/> 			<path id="_B883E479-CDA0-426E-9358-42BA0ABC1AADdefault" d="M 5 0 L 11 10" fill="white" stroke="#000000" stroke-width="1" display="none"/> 	  	</marker><marker id="_B883E479-CDA0-426E-9358-42BA0ABC1AADend" refX="15" refY="6" markerUnits="userSpaceOnUse" markerWidth="15" markerHeight="12" orient="auto" fill="#000000" stroke="#000000"> 	  		<path id="_B883E479-CDA0-426E-9358-42BA0ABC1AADframe2" d="M 0 1 L 15 6 L 0 11z" fill="#000000" stroke="#000000" stroke-linejoin="round" stroke-width="2"/> 	  	</marker></defs><g stroke="none" font-family="Verdana, sans-serif" font-size-adjust="none" font-style="normal" font-variant="normal" font-weight="normal" line-heigth="normal" font-size="12"><g class="stencils" transform="translate(15, 16.125)"><g class="me"/><g class="children"><g id="_07FB85CC-273D-4C8E-81DC-996173941509" bpmn2nodeid="processStartEvent"><g class="stencils" transform="translate(120, 165)"><g class="me"><g pointer-events="fill" id="_07FB85CC-273D-4C8E-81DC-996173941509">        <defs id="_07FB85CC-273D-4C8E-81DC-996173941509__07FB85CC-273D-4C8E-81DC-996173941509_5"> 		<radialGradient id="_07FB85CC-273D-4C8E-81DC-996173941509background" cx="10%" cy="10%" r="100%" fx="10%" fy="10%"> 			<stop offset="0%" stop-color="#ffffff" stop-opacity="1" id="_07FB85CC-273D-4C8E-81DC-996173941509__07FB85CC-273D-4C8E-81DC-996173941509_6"/> 			<stop id="_07FB85CC-273D-4C8E-81DC-996173941509fill_el" offset="100%" stop-color="#9acd32" stop-opacity="1"/> 		</radialGradient> 	</defs> 	     <circle id="_07FB85CC-273D-4C8E-81DC-996173941509bg_frame" cx="15" cy="15" r="15" stroke="#000000" fill="url(#_07FB85CC-273D-4C8E-81DC-996173941509background) white" stroke-width="1" style="stroke-dasharray: 5.5, 3"/>      <circle id="_07FB85CC-273D-4C8E-81DC-996173941509frame" cx="15" cy="15" r="15" stroke="#000000" fill="none" stroke-width="1" display="inherit"/>  	<text font-size="11" id="_07FB85CC-273D-4C8E-81DC-996173941509text_name" x="15" y="32" oryx:align="top center" stroke="black" stroke-width="0pt" letter-spacing="-0.01px" fill="#000000" text-anchor="middle" transform="rotate(0 15 32)" visibility="inherit" oryx:fontSize="11"/>   </g></g><g class="children" style="overflow:hidden"/><g class="edge"/></g><g class="controls"><g class="dockers"/><g class="magnets" transform="translate(120, 165)"><g pointer-events="all" display="none" transform="translate(7, 7)"><circle cx="8" cy="8" r="4" stroke="none" fill="red" fill-opacity="0.3"/></g></g></g></g><g id="_0A07D0C7-17BB-4254-BB0C-05F1D43C37FC" bpmn2nodeid="_C2F6C405-62EA-4F18-815F-B422DE0296D1"><g class="stencils" transform="translate(285.00000000000017, 140.00000000000003)"><g class="me"><g pointer-events="fill" oryx:minimumSize="50 40" id="_0A07D0C7-17BB-4254-BB0C-05F1D43C37FC">   	<defs id="_0A07D0C7-17BB-4254-BB0C-05F1D43C37FC__0A07D0C7-17BB-4254-BB0C-05F1D43C37FC_17"> 		<radialGradient id="_0A07D0C7-17BB-4254-BB0C-05F1D43C37FCbackground" cx="10%" cy="10%" r="100%" fx="10%" fy="10%"> 			<stop offset="0%" stop-color="#ffffff" stop-opacity="1" id="_0A07D0C7-17BB-4254-BB0C-05F1D43C37FC__0A07D0C7-17BB-4254-BB0C-05F1D43C37FC_18"/> 			<stop id="_0A07D0C7-17BB-4254-BB0C-05F1D43C37FCfill_el" offset="100%" stop-color="#fafad2" stop-opacity="1"/> 		</radialGradient> 		<radialGradient id="_0A07D0C7-17BB-4254-BB0C-05F1D43C37FCborderbackground" cx="10%" cy="10%" r="100%" fx="10%" fy="10%"> 			<stop offset="0%" stop-color="#ffffff" stop-opacity="1" id="_0A07D0C7-17BB-4254-BB0C-05F1D43C37FC__0A07D0C7-17BB-4254-BB0C-05F1D43C37FC_19"/> 			<stop id="_0A07D0C7-17BB-4254-BB0C-05F1D43C37FCfill_border" offset="100%" stop-color="#000000" stop-opacity="1" stroke="#000000"/> 		</radialGradient> 	</defs> 	 	<rect id="_0A07D0C7-17BB-4254-BB0C-05F1D43C37FCtext_frame" oryx:anchors="bottom top right left" x="1" y="1" width="94" height="79" rx="10" ry="10" stroke="none" stroke-width="0" fill="none"/> 	<rect id="_0A07D0C7-17BB-4254-BB0C-05F1D43C37FCbg_frame" oryx:resize="vertical horizontal" x="0" y="0" width="100" height="80" rx="10" ry="10" stroke="#000000" stroke-width="1" fill="url(#_0A07D0C7-17BB-4254-BB0C-05F1D43C37FCbackground) #ffffcc"/> 		<text font-size="12" id="_0A07D0C7-17BB-4254-BB0C-05F1D43C37FCtext_name" x="50" y="40" oryx:align="middle center" oryx:fittoelem="text_frame" stroke="black" text-anchor="middle" stroke-width="0pt" letter-spacing="-0.01px" fill="#000000" transform="rotate(0 50 40)" visibility="inherit" oryx:fontSize="12"><tspan x="50" y="40" dy="-1" id="ext-gen2304">INGRESAR </tspan><tspan x="50" y="40" dy="11" id="ext-gen2185">NOTAS</tspan></text>     <g id="_0A07D0C7-17BB-4254-BB0C-05F1D43C37FCmanualTask" transform="scale(0.7,0.7) translate(8,8)" display="none">     	<path oryx:anchors="top left" id="_0A07D0C7-17BB-4254-BB0C-05F1D43C37FCframe" style="opacity:1;fill:none;fill-opacity:1;stroke-width:1" d="M0.5,3.751l4.083-3.25c0,0,11.166,0.083,12.083,0.083s-2.417,2.917-1.5,2.917     s11.667,0,12.584,0c1.166,1.708-0.168,3.167-0.834,3.667s0.875,1.917-1,4.417c-0.75,0.25,0.75,1.875-1.333,3.333     c-1.167,0.583,0.583,1.542-1.25,2.833c-1.167,0-20.833,0.083-20.833,0.083l-2-1.333V3.751z" stroke="#000000"/> 		<path id="_0A07D0C7-17BB-4254-BB0C-05F1D43C37FCframe2" oryx:anchors="top left" style="opacity:1;fill:none;stroke-width:2" d="M 13.5 7 L 27 7" stroke="#000000"/> 		<path id="_0A07D0C7-17BB-4254-BB0C-05F1D43C37FCframe3" oryx:anchors="top left" style="opacity:1;fill:none;stroke-width:2" d="M 13.5 11 L 26 11" stroke="#000000"/> 		<path id="_0A07D0C7-17BB-4254-BB0C-05F1D43C37FCframe4" oryx:anchors="top left" style="opacity:1;fill:none;stroke-width:1.5" d="M 14 14.5 L 25 14.5" stroke="#000000"/> 		<path id="_0A07D0C7-17BB-4254-BB0C-05F1D43C37FCframe5" oryx:anchors="top left" style="opacity:1;fill:none;stroke-width:1.5" d="M 8.2 3.1 L 15 3.1" stroke="#000000"/> 	</g> 	 	<g id="_0A07D0C7-17BB-4254-BB0C-05F1D43C37FCbusinessRuleTask" transform="scale(0.7,0.7) translate(8,8)" display="none"> 		<rect id="_0A07D0C7-17BB-4254-BB0C-05F1D43C37FCframe6" oryx:anchors="top left" x="0" y="0" width="22" height="4" style="opacity:1;fill:#B3B1B3;fill-opacity:1;" stroke="#000000"/> 		<rect id="_0A07D0C7-17BB-4254-BB0C-05F1D43C37FCframe7" oryx:anchors="top left" x="0" y="4" style="opacity:1;fill:none;" width="22" height="12" stroke="#000000"/> 		<path id="_0A07D0C7-17BB-4254-BB0C-05F1D43C37FCframe8" oryx:anchors="top left" style="opacity:1;fill:none;" d="M 0 10 L 22 10" stroke="#000000"/> 		<path id="_0A07D0C7-17BB-4254-BB0C-05F1D43C37FCframe9" oryx:anchors="top left" style="opacity:1; fill:none;" d="M 7 4 L 7 16" stroke="#000000"/> 	</g> 	 	<g id="_0A07D0C7-17BB-4254-BB0C-05F1D43C37FCscriptTask" transform="scale(0.7,0.7) translate(8,8)" display="none"> 		<path oryx:anchors="top left" id="_0A07D0C7-17BB-4254-BB0C-05F1D43C37FCframe10" style="opacity:1;fill:none;" stroke="#000000" d="M6.402,0.5h14.5c0,0-5.833,2.833-5.833,5.583s4.417,6,4.417,9.167    s-4.167,5.083-4.167,5.083H0.235c0,0,5-2.667,5-5s-4.583-6.75-4.583-9.25S6.402,0.5,6.402,0.5z"/> 		<path oryx:anchors="top left" id="_0A07D0C7-17BB-4254-BB0C-05F1D43C37FCframe11" style="opacity:1;fill:none;stroke-width:1.5" d="M 3.5 4.5 L 13.5 4.5" stroke="#000000"/> 		<path oryx:anchors="top left" id="_0A07D0C7-17BB-4254-BB0C-05F1D43C37FCframe12" style="opacity:1;fill:none;stroke-width:1.5" d="M 3.8 8.5 L 13.8 8.5" stroke="#000000"/> 		<path oryx:anchors="top left" id="_0A07D0C7-17BB-4254-BB0C-05F1D43C37FCframe13" style="opacity:1;fill:none;stroke-width:1.5" d="M 6.3 12.5 L 16.3 12.5" stroke="#000000"/> 		<path oryx:anchors="top left" id="_0A07D0C7-17BB-4254-BB0C-05F1D43C37FCframe14" style="opacity:1;fill:none;stroke-width:1.5" d="M 6.5 16.5 L 16.5 16.5" stroke="#000000"/> 	</g> 	 	<g id="_0A07D0C7-17BB-4254-BB0C-05F1D43C37FCuserTask" transform="scale(0.7,0.7) translate(8,8)" display="inherit"> 		<path id="_0A07D0C7-17BB-4254-BB0C-05F1D43C37FCframe15" oryx:anchors="top left" style="opacity:1;fill:#F4F6F7" stroke="#000000" d="M0.585,24.167h24.083v-7.833c0,0-2.333-3.917-7.083-5.167h-9.25    c-4.417,1.333-7.833,5.75-7.833,5.75L0.585,24.167z"/> 		<path id="_0A07D0C7-17BB-4254-BB0C-05F1D43C37FCframe16" oryx:anchors="top left" style="opacity:1;fill:none" d="M 6 20 L 6 24" stroke="#000000"/> 		<path id="_0A07D0C7-17BB-4254-BB0C-05F1D43C37FCframe17" oryx:anchors="top left" style="opacity:1;fill:none" d="M 20 20 L 20 24" stroke="#000000"/> 		<circle id="_0A07D0C7-17BB-4254-BB0C-05F1D43C37FCframe18" oryx:anchors="top left" fill="black" cx="13.002" cy="5.916" r="5.417" stroke="#000000"/> 		<path id="_0A07D0C7-17BB-4254-BB0C-05F1D43C37FCframe19" oryx:anchors="top left" style="opacity:1;fill:#F0EFF0;" stroke="#000000" d="M8.043,7.083c0,0,2.814-2.426,5.376-1.807s4.624-0.693,4.624-0.693    c0.25,1.688,0.042,3.75-1.458,5.584c0,0,1.083,0.75,1.083,1.5s0.125,1.875-1,3s-5.5,1.25-6.75,0S8.668,12.834,8.668,12    s0.583-1.25,1.25-1.917C8.835,9.5,7.419,7.708,8.043,7.083z"/> 	</g> 	 	<g id="_0A07D0C7-17BB-4254-BB0C-05F1D43C37FCserviceTask" transform="scale(0.7,0.7) translate(8,8)" display="none"> 		<polygon oryx:anchors="top left" id="_0A07D0C7-17BB-4254-BB0C-05F1D43C37FCframe20" style="opacity:1;fill:#ffffff" stroke="#000000" points="15.392,5.064 17.954,2.502 20.347,4.895 17.786,7.455     18.729,9.732 22.353,9.732 22.353,13.115 18.731,13.115 17.788,15.392 20.351,17.955 17.958,20.347 15.397,17.786 13.12,18.729     13.12,22.353 9.737,22.353 9.737,18.731 7.46,17.788 4.897,20.35 2.506,17.958 5.066,15.397 4.124,13.12 0.5,13.12 0.5,9.737     4.121,9.737 5.065,7.461 2.503,4.898 4.895,2.506 7.455,5.066 9.732,4.125 9.732,0.5 13.116,0.5 13.116,4.121 "/> 		<circle oryx:anchors="top left" id="_0A07D0C7-17BB-4254-BB0C-05F1D43C37FCframe21" style="opacity:1;fill:none" stroke="#000000" cx="11.427" cy="11.426" r="3.714"/> 		<polygon oryx:anchors="top left" id="_0A07D0C7-17BB-4254-BB0C-05F1D43C37FCframe22" style="opacity:1;fill:#ffffff" stroke="#000000" points="21.392,11.064 23.954,8.502 26.347,10.895 23.786,13.455     24.729,15.732 28.353,15.732 28.353,19.115 24.731,19.115 23.788,21.392 26.351,23.955 23.958,26.347 21.397,23.786 19.12,24.729     19.12,28.353 15.737,28.353 15.737,24.731 13.46,23.788 10.897,26.35 8.506,23.958 11.066,21.397 10.124,19.12 6.5,19.12     6.5,15.737 10.121,15.737 11.065,13.461 8.503,10.898 10.895,8.506 13.455,11.066 15.732,10.125 15.732,6.5 19.116,6.5     19.116,10.121 "/> 		<circle oryx:anchors="top left" id="_0A07D0C7-17BB-4254-BB0C-05F1D43C37FCframe23" style="opacity:1;fill:none;" stroke="#000000" cx="17.427" cy="17.426" r="3.714"/> 	</g> 	 	<g id="_0A07D0C7-17BB-4254-BB0C-05F1D43C37FCsendTask" display="none"> 		<path id="_0A07D0C7-17BB-4254-BB0C-05F1D43C37FCstframe24" oryx:anchors="left top" stroke="#FFFFFF" fill="black" stroke-width="1" d="M8,11 L8,21 L24,21 L24,11 L16,17z"/> 		<path id="_0A07D0C7-17BB-4254-BB0C-05F1D43C37FCstframe25" oryx:anchors="left top" stroke="#FFFFFF" fill="black" stroke-width="1" d="M7,10 L16,17 L25 10z"/> 	</g> 	 	<g id="_0A07D0C7-17BB-4254-BB0C-05F1D43C37FCreceiveTask" display="none"> 		<path id="_0A07D0C7-17BB-4254-BB0C-05F1D43C37FCframe26" oryx:anchors="left top" stroke="#000000" fill="none" stroke-width="1" d="M8,11 L8,21 L24,21 L24,11z M8,11 L16,17 L24,11"/> 	</g> 	 	<g id="_0A07D0C7-17BB-4254-BB0C-05F1D43C37FCnone" display="none"/>  	<g id="_0A07D0C7-17BB-4254-BB0C-05F1D43C37FCsequential" display="none">         <path oryx:anchors="bottom" fill="none" stroke="#000000" stroke-width="2" d="M46,76h10M46,72h10 M46,68h10" id="_0A07D0C7-17BB-4254-BB0C-05F1D43C37FC__0A07D0C7-17BB-4254-BB0C-05F1D43C37FC_20"/>     </g>   </g></g><g class="children" style="overflow:hidden"/><g class="edge"/></g><g class="controls"><g class="dockers"/><g class="magnets" transform="translate(285.00000000000017, 140.00000000000003)"><g pointer-events="all" display="none" transform="translate(-7, 12)"><circle cx="8" cy="8" r="4" stroke="none" fill="red" fill-opacity="0.3"/></g><g pointer-events="all" display="none" transform="translate(-7, 32)"><circle cx="8" cy="8" r="4" stroke="none" fill="red" fill-opacity="0.3"/></g><g pointer-events="all" display="none" transform="translate(-7, 52)"><circle cx="8" cy="8" r="4" stroke="none" fill="red" fill-opacity="0.3"/></g><g pointer-events="all" display="none" transform="translate(17, 71)"><circle cx="8" cy="8" r="4" stroke="none" fill="red" fill-opacity="0.3"/></g><g pointer-events="all" display="none" transform="translate(42, 71)"><circle cx="8" cy="8" r="4" stroke="none" fill="red" fill-opacity="0.3"/></g><g pointer-events="all" display="none" transform="translate(67, 71)"><circle cx="8" cy="8" r="4" stroke="none" fill="red" fill-opacity="0.3"/></g><g pointer-events="all" display="none" transform="translate(91, 12)"><circle cx="8" cy="8" r="4" stroke="none" fill="red" fill-opacity="0.3"/></g><g pointer-events="all" display="none" transform="translate(91, 32)"><circle cx="8" cy="8" r="4" stroke="none" fill="red" fill-opacity="0.3"/></g><g pointer-events="all" display="none" transform="translate(91, 52)"><circle cx="8" cy="8" r="4" stroke="none" fill="red" fill-opacity="0.3"/></g><g pointer-events="all" display="none" transform="translate(17, -7)"><circle cx="8" cy="8" r="4" stroke="none" fill="red" fill-opacity="0.3"/></g><g pointer-events="all" display="none" transform="translate(42, -7)"><circle cx="8" cy="8" r="4" stroke="none" fill="red" fill-opacity="0.3"/></g><g pointer-events="all" display="none" transform="translate(67, -7)"><circle cx="8" cy="8" r="4" stroke="none" fill="red" fill-opacity="0.3"/></g><g pointer-events="all" display="none" transform="translate(42, 32)"><circle cx="8" cy="8" r="4" stroke="none" fill="red" fill-opacity="0.3"/></g></g></g></g><g id="_9DD4862F-BDE9-4863-BEFC-91BCEAC9D327" bpmn2nodeid="_77FE3E51-7D77-4B7A-98C7-CAFEF5B22E4A"><g class="stencils" transform="translate(430.0000000000004, 140.00000000000003)"><g class="me"><g pointer-events="fill" oryx:minimumSize="50 40" id="_9DD4862F-BDE9-4863-BEFC-91BCEAC9D327">   	<defs id="_9DD4862F-BDE9-4863-BEFC-91BCEAC9D327__9DD4862F-BDE9-4863-BEFC-91BCEAC9D327_17"> 		<radialGradient id="_9DD4862F-BDE9-4863-BEFC-91BCEAC9D327background" cx="10%" cy="10%" r="100%" fx="10%" fy="10%"> 			<stop offset="0%" stop-color="#ffffff" stop-opacity="1" id="_9DD4862F-BDE9-4863-BEFC-91BCEAC9D327__9DD4862F-BDE9-4863-BEFC-91BCEAC9D327_18"/> 			<stop id="_9DD4862F-BDE9-4863-BEFC-91BCEAC9D327fill_el" offset="100%" stop-color="#fafad2" stop-opacity="1"/> 		</radialGradient> 		<radialGradient id="_9DD4862F-BDE9-4863-BEFC-91BCEAC9D327borderbackground" cx="10%" cy="10%" r="100%" fx="10%" fy="10%"> 			<stop offset="0%" stop-color="#ffffff" stop-opacity="1" id="_9DD4862F-BDE9-4863-BEFC-91BCEAC9D327__9DD4862F-BDE9-4863-BEFC-91BCEAC9D327_19"/> 			<stop id="_9DD4862F-BDE9-4863-BEFC-91BCEAC9D327fill_border" offset="100%" stop-color="#000000" stop-opacity="1" stroke="#000000"/> 		</radialGradient> 	</defs> 	 	<rect id="_9DD4862F-BDE9-4863-BEFC-91BCEAC9D327text_frame" oryx:anchors="bottom top right left" x="1" y="1" width="94.00000000000006" height="79" rx="10" ry="10" stroke="none" stroke-width="0" fill="none"/> 	<rect id="_9DD4862F-BDE9-4863-BEFC-91BCEAC9D327bg_frame" oryx:resize="vertical horizontal" x="0" y="0" width="100.00000000000007" height="80" rx="10" ry="10" stroke="#000000" stroke-width="1" fill="url(#_9DD4862F-BDE9-4863-BEFC-91BCEAC9D327background) #ffffcc"/> 		<text font-size="12" id="_9DD4862F-BDE9-4863-BEFC-91BCEAC9D327text_name" x="50.000000000000036" y="40" oryx:align="middle center" oryx:fittoelem="text_frame" stroke="black" text-anchor="middle" stroke-width="0pt" letter-spacing="-0.01px" fill="#000000" transform="rotate(0 50.000000000000036 40)" visibility="inherit" oryx:fontSize="12"><tspan x="50.000000000000036" y="40" dy="5" id="ext-gen2845">dar promedio</tspan></text>     <g id="_9DD4862F-BDE9-4863-BEFC-91BCEAC9D327manualTask" transform="scale(0.7,0.7) translate(8,8)" display="none">     	<path oryx:anchors="top left" id="_9DD4862F-BDE9-4863-BEFC-91BCEAC9D327frame" style="opacity:1;fill:none;fill-opacity:1;stroke-width:1" d="M0.5,3.751l4.083-3.25c0,0,11.166,0.083,12.083,0.083s-2.417,2.917-1.5,2.917     s11.667,0,12.584,0c1.166,1.708-0.168,3.167-0.834,3.667s0.875,1.917-1,4.417c-0.75,0.25,0.75,1.875-1.333,3.333     c-1.167,0.583,0.583,1.542-1.25,2.833c-1.167,0-20.833,0.083-20.833,0.083l-2-1.333V3.751z" stroke="#000000"/> 		<path id="_9DD4862F-BDE9-4863-BEFC-91BCEAC9D327frame2" oryx:anchors="top left" style="opacity:1;fill:none;stroke-width:2" d="M 13.5 7 L 27 7" stroke="#000000"/> 		<path id="_9DD4862F-BDE9-4863-BEFC-91BCEAC9D327frame3" oryx:anchors="top left" style="opacity:1;fill:none;stroke-width:2" d="M 13.5 11 L 26 11" stroke="#000000"/> 		<path id="_9DD4862F-BDE9-4863-BEFC-91BCEAC9D327frame4" oryx:anchors="top left" style="opacity:1;fill:none;stroke-width:1.5" d="M 14 14.5 L 25 14.5" stroke="#000000"/> 		<path id="_9DD4862F-BDE9-4863-BEFC-91BCEAC9D327frame5" oryx:anchors="top left" style="opacity:1;fill:none;stroke-width:1.5" d="M 8.2 3.1 L 15 3.1" stroke="#000000"/> 	</g> 	 	<g id="_9DD4862F-BDE9-4863-BEFC-91BCEAC9D327businessRuleTask" transform="scale(0.7,0.7) translate(8,8)" display="none"> 		<rect id="_9DD4862F-BDE9-4863-BEFC-91BCEAC9D327frame6" oryx:anchors="top left" x="0" y="0" width="22" height="4" style="opacity:1;fill:#B3B1B3;fill-opacity:1;" stroke="#000000"/> 		<rect id="_9DD4862F-BDE9-4863-BEFC-91BCEAC9D327frame7" oryx:anchors="top left" x="0" y="4" style="opacity:1;fill:none;" width="22" height="12" stroke="#000000"/> 		<path id="_9DD4862F-BDE9-4863-BEFC-91BCEAC9D327frame8" oryx:anchors="top left" style="opacity:1;fill:none;" d="M 0 10 L 22 10" stroke="#000000"/> 		<path id="_9DD4862F-BDE9-4863-BEFC-91BCEAC9D327frame9" oryx:anchors="top left" style="opacity:1; fill:none;" d="M 7 4 L 7 16" stroke="#000000"/> 	</g> 	 	<g id="_9DD4862F-BDE9-4863-BEFC-91BCEAC9D327scriptTask" transform="scale(0.7,0.7) translate(8,8)" display="inherit"> 		<path oryx:anchors="top left" id="_9DD4862F-BDE9-4863-BEFC-91BCEAC9D327frame10" style="opacity:1;fill:none;" stroke="#000000" d="M6.402,0.5h14.5c0,0-5.833,2.833-5.833,5.583s4.417,6,4.417,9.167    s-4.167,5.083-4.167,5.083H0.235c0,0,5-2.667,5-5s-4.583-6.75-4.583-9.25S6.402,0.5,6.402,0.5z"/> 		<path oryx:anchors="top left" id="_9DD4862F-BDE9-4863-BEFC-91BCEAC9D327frame11" style="opacity:1;fill:none;stroke-width:1.5" d="M 3.5 4.5 L 13.5 4.5" stroke="#000000"/> 		<path oryx:anchors="top left" id="_9DD4862F-BDE9-4863-BEFC-91BCEAC9D327frame12" style="opacity:1;fill:none;stroke-width:1.5" d="M 3.8 8.5 L 13.8 8.5" stroke="#000000"/> 		<path oryx:anchors="top left" id="_9DD4862F-BDE9-4863-BEFC-91BCEAC9D327frame13" style="opacity:1;fill:none;stroke-width:1.5" d="M 6.3 12.5 L 16.3 12.5" stroke="#000000"/> 		<path oryx:anchors="top left" id="_9DD4862F-BDE9-4863-BEFC-91BCEAC9D327frame14" style="opacity:1;fill:none;stroke-width:1.5" d="M 6.5 16.5 L 16.5 16.5" stroke="#000000"/> 	</g> 	 	<g id="_9DD4862F-BDE9-4863-BEFC-91BCEAC9D327userTask" transform="scale(0.7,0.7) translate(8,8)" display="none"> 		<path id="_9DD4862F-BDE9-4863-BEFC-91BCEAC9D327frame15" oryx:anchors="top left" style="opacity:1;fill:#F4F6F7" stroke="#000000" d="M0.585,24.167h24.083v-7.833c0,0-2.333-3.917-7.083-5.167h-9.25    c-4.417,1.333-7.833,5.75-7.833,5.75L0.585,24.167z"/> 		<path id="_9DD4862F-BDE9-4863-BEFC-91BCEAC9D327frame16" oryx:anchors="top left" style="opacity:1;fill:none" d="M 6 20 L 6 24" stroke="#000000"/> 		<path id="_9DD4862F-BDE9-4863-BEFC-91BCEAC9D327frame17" oryx:anchors="top left" style="opacity:1;fill:none" d="M 20 20 L 20 24" stroke="#000000"/> 		<circle id="_9DD4862F-BDE9-4863-BEFC-91BCEAC9D327frame18" oryx:anchors="top left" fill="black" cx="13.002" cy="5.916" r="5.417" stroke="#000000"/> 		<path id="_9DD4862F-BDE9-4863-BEFC-91BCEAC9D327frame19" oryx:anchors="top left" style="opacity:1;fill:#F0EFF0;" stroke="#000000" d="M8.043,7.083c0,0,2.814-2.426,5.376-1.807s4.624-0.693,4.624-0.693    c0.25,1.688,0.042,3.75-1.458,5.584c0,0,1.083,0.75,1.083,1.5s0.125,1.875-1,3s-5.5,1.25-6.75,0S8.668,12.834,8.668,12    s0.583-1.25,1.25-1.917C8.835,9.5,7.419,7.708,8.043,7.083z"/> 	</g> 	 	<g id="_9DD4862F-BDE9-4863-BEFC-91BCEAC9D327serviceTask" transform="scale(0.7,0.7) translate(8,8)" display="none"> 		<polygon oryx:anchors="top left" id="_9DD4862F-BDE9-4863-BEFC-91BCEAC9D327frame20" style="opacity:1;fill:#ffffff" stroke="#000000" points="15.392,5.064 17.954,2.502 20.347,4.895 17.786,7.455     18.729,9.732 22.353,9.732 22.353,13.115 18.731,13.115 17.788,15.392 20.351,17.955 17.958,20.347 15.397,17.786 13.12,18.729     13.12,22.353 9.737,22.353 9.737,18.731 7.46,17.788 4.897,20.35 2.506,17.958 5.066,15.397 4.124,13.12 0.5,13.12 0.5,9.737     4.121,9.737 5.065,7.461 2.503,4.898 4.895,2.506 7.455,5.066 9.732,4.125 9.732,0.5 13.116,0.5 13.116,4.121 "/> 		<circle oryx:anchors="top left" id="_9DD4862F-BDE9-4863-BEFC-91BCEAC9D327frame21" style="opacity:1;fill:none" stroke="#000000" cx="11.427" cy="11.426" r="3.714"/> 		<polygon oryx:anchors="top left" id="_9DD4862F-BDE9-4863-BEFC-91BCEAC9D327frame22" style="opacity:1;fill:#ffffff" stroke="#000000" points="21.392,11.064 23.954,8.502 26.347,10.895 23.786,13.455     24.729,15.732 28.353,15.732 28.353,19.115 24.731,19.115 23.788,21.392 26.351,23.955 23.958,26.347 21.397,23.786 19.12,24.729     19.12,28.353 15.737,28.353 15.737,24.731 13.46,23.788 10.897,26.35 8.506,23.958 11.066,21.397 10.124,19.12 6.5,19.12     6.5,15.737 10.121,15.737 11.065,13.461 8.503,10.898 10.895,8.506 13.455,11.066 15.732,10.125 15.732,6.5 19.116,6.5     19.116,10.121 "/> 		<circle oryx:anchors="top left" id="_9DD4862F-BDE9-4863-BEFC-91BCEAC9D327frame23" style="opacity:1;fill:none;" stroke="#000000" cx="17.427" cy="17.426" r="3.714"/> 	</g> 	 	<g id="_9DD4862F-BDE9-4863-BEFC-91BCEAC9D327sendTask" display="none"> 		<path id="_9DD4862F-BDE9-4863-BEFC-91BCEAC9D327stframe24" oryx:anchors="left top" stroke="#FFFFFF" fill="black" stroke-width="1" d="M8,11 L8,21 L24,21 L24,11 L16,17z"/> 		<path id="_9DD4862F-BDE9-4863-BEFC-91BCEAC9D327stframe25" oryx:anchors="left top" stroke="#FFFFFF" fill="black" stroke-width="1" d="M7,10 L16,17 L25 10z"/> 	</g> 	 	<g id="_9DD4862F-BDE9-4863-BEFC-91BCEAC9D327receiveTask" display="none"> 		<path id="_9DD4862F-BDE9-4863-BEFC-91BCEAC9D327frame26" oryx:anchors="left top" stroke="#000000" fill="none" stroke-width="1" d="M8,11 L8,21 L24,21 L24,11z M8,11 L16,17 L24,11"/> 	</g> 	 	<g id="_9DD4862F-BDE9-4863-BEFC-91BCEAC9D327none" display="none"/>  	<g id="_9DD4862F-BDE9-4863-BEFC-91BCEAC9D327sequential" display="none">         <path oryx:anchors="bottom" fill="none" stroke="#000000" stroke-width="2" d=" M46.00000000000003 76  h10  M46.00000000000003 72  h10  M46.00000000000003 68  h10 " id="_9DD4862F-BDE9-4863-BEFC-91BCEAC9D327__9DD4862F-BDE9-4863-BEFC-91BCEAC9D327_20"/>     </g>   </g></g><g class="children" style="overflow:hidden"/><g class="edge"/></g><g class="controls"><g class="dockers"/><g class="magnets" transform="translate(430.0000000000004, 140.00000000000003)"><g pointer-events="all" display="none" transform="translate(-7, 12)"><circle cx="8" cy="8" r="4" stroke="none" fill="red" fill-opacity="0.3"/></g><g pointer-events="all" display="none" transform="translate(-7, 32)"><circle cx="8" cy="8" r="4" stroke="none" fill="red" fill-opacity="0.3"/></g><g pointer-events="all" display="none" transform="translate(-7, 52)"><circle cx="8" cy="8" r="4" stroke="none" fill="red" fill-opacity="0.3"/></g><g pointer-events="all" display="none" transform="translate(17.000000000000018, 71)"><circle cx="8" cy="8" r="4" stroke="none" fill="red" fill-opacity="0.3"/></g><g pointer-events="all" display="none" transform="translate(42.000000000000036, 71)"><circle cx="8" cy="8" r="4" stroke="none" fill="red" fill-opacity="0.3"/></g><g pointer-events="all" display="none" transform="translate(67.00000000000006, 71)"><circle cx="8" cy="8" r="4" stroke="none" fill="red" fill-opacity="0.3"/></g><g pointer-events="all" display="none" transform="translate(91.00000000000006, 12)"><circle cx="8" cy="8" r="4" stroke="none" fill="red" fill-opacity="0.3"/></g><g pointer-events="all" display="none" transform="translate(91.00000000000006, 32)"><circle cx="8" cy="8" r="4" stroke="none" fill="red" fill-opacity="0.3"/></g><g pointer-events="all" display="none" transform="translate(91.00000000000006, 52)"><circle cx="8" cy="8" r="4" stroke="none" fill="red" fill-opacity="0.3"/></g><g pointer-events="all" display="none" transform="translate(17.000000000000018, -7)"><circle cx="8" cy="8" r="4" stroke="none" fill="red" fill-opacity="0.3"/></g><g pointer-events="all" display="none" transform="translate(42.000000000000036, -7)"><circle cx="8" cy="8" r="4" stroke="none" fill="red" fill-opacity="0.3"/></g><g pointer-events="all" display="none" transform="translate(67.00000000000006, -7)"><circle cx="8" cy="8" r="4" stroke="none" fill="red" fill-opacity="0.3"/></g><g pointer-events="all" display="none" transform="translate(42.000000000000036, 32)"><circle cx="8" cy="8" r="4" stroke="none" fill="red" fill-opacity="0.3"/></g></g></g></g><g id="_E597AAB5-03A5-41D3-AEEA-9A8ADCC5C465" bpmn2nodeid="_DD61B15E-9D56-4045-A1B5-E3F0E9C6849C"><g class="stencils" transform="translate(575.0000000000003, 166.00000000000003)"><g class="me"><g pointer-events="fill" id="_E597AAB5-03A5-41D3-AEEA-9A8ADCC5C465">      <defs id="_E597AAB5-03A5-41D3-AEEA-9A8ADCC5C465__E597AAB5-03A5-41D3-AEEA-9A8ADCC5C465_5"> 		<radialGradient id="_E597AAB5-03A5-41D3-AEEA-9A8ADCC5C465background" cx="10%" cy="10%" r="100%" fx="10%" fy="10%"> 			<stop offset="0%" stop-color="#ffffff" stop-opacity="1" id="_E597AAB5-03A5-41D3-AEEA-9A8ADCC5C465__E597AAB5-03A5-41D3-AEEA-9A8ADCC5C465_6"/> 			<stop id="_E597AAB5-03A5-41D3-AEEA-9A8ADCC5C465fill_el" offset="100%" stop-color="#ff6347" stop-opacity="1"/> 		</radialGradient> 	</defs> 	     <circle id="_E597AAB5-03A5-41D3-AEEA-9A8ADCC5C465bg_frame" cx="14" cy="14" r="14" stroke="#000000" fill="url(#_E597AAB5-03A5-41D3-AEEA-9A8ADCC5C465background) white" stroke-width="3"/> 	<text font-size="11" id="_E597AAB5-03A5-41D3-AEEA-9A8ADCC5C465text_name" x="14" y="30" oryx:align="top center" stroke="black" stroke-width="0pt" letter-spacing="-0.01px" fill="#000000" text-anchor="middle" transform="rotate(0 14 30)" visibility="inherit" oryx:fontSize="11"/>   </g></g><g class="children" style="overflow:hidden"/><g class="edge"/></g><g class="controls"><g class="dockers"/><g class="magnets" transform="translate(575.0000000000003, 166.00000000000003)"><g pointer-events="all" display="none" transform="translate(6, 6)"><circle cx="8" cy="8" r="4" stroke="none" fill="red" fill-opacity="0.3"/></g></g></g></g></g><g class="edge"><g id="_C11BDEE5-33E4-4CE7-806B-3863889A7FA5" bpmn2nodeid="_120C9066-2CA6-4B06-96BB-EC88EF1F364C"><g class="stencils"><g class="me"><g pointer-events="painted" bpmn2nodeid="_120C9066-2CA6-4B06-96BB-EC88EF1F364C"><path id="_C11BDEE5-33E4-4CE7-806B-3863889A7FA5_1" d="M150.0625 180L284.7812500000001 180 " stroke="#000000" fill="none" stroke-width="2" stroke-linecap="round" stroke-linejoin="round" marker-start="url(#_C11BDEE5-33E4-4CE7-806B-3863889A7FA5start)" marker-end="url(#_C11BDEE5-33E4-4CE7-806B-3863889A7FA5end)"/></g><text id="_C11BDEE5-33E4-4CE7-806B-3863889A7FA5text_name" font-size="12" x="164.0625" y="166" oryx:edgePosition="startTop" stroke-width="0pt" letter-spacing="-0.01px" fill="#000000" text-anchor="start" transform="rotate(360 150.0625 180)" visibility="inherit" oryx:fontSize="12"/></g><g class="children" style="overflow:hidden"/><g class="edge"/></g><g class="controls"><g class="dockers"/><g class="magnets"/></g></g><g id="_61C30021-580B-4CC1-AE1D-486CA1BA66C2" bpmn2nodeid="_2E274013-0A1C-4417-B61F-878D4F200999"><g class="stencils"><g class="me"><g pointer-events="painted" bpmn2nodeid="_2E274013-0A1C-4417-B61F-878D4F200999"><path id="_61C30021-580B-4CC1-AE1D-486CA1BA66C2_1" d="M385.8437500000002 180.00000000000003L429.15625000000034 180.00000000000003 " stroke="#000000" fill="none" stroke-width="2" stroke-linecap="round" stroke-linejoin="round" marker-start="url(#_61C30021-580B-4CC1-AE1D-486CA1BA66C2start)" marker-end="url(#_61C30021-580B-4CC1-AE1D-486CA1BA66C2end)"/></g><text id="_61C30021-580B-4CC1-AE1D-486CA1BA66C2text_name" font-size="12" x="399.8437500000002" y="166.00000000000003" oryx:edgePosition="startTop" stroke-width="0pt" letter-spacing="-0.01px" fill="#000000" text-anchor="start" transform="rotate(360 385.8437500000002 180.00000000000003)" visibility="inherit" oryx:fontSize="12"/></g><g class="children" style="overflow:hidden"/><g class="edge"/></g><g class="controls"><g class="dockers"/><g class="magnets"/></g></g><g id="_B883E479-CDA0-426E-9358-42BA0ABC1AAD" bpmn2nodeid="_63877114-52C0-46E8-AC07-788A60A3181F"><g class="stencils"><g class="me"><g pointer-events="painted" bpmn2nodeid="_63877114-52C0-46E8-AC07-788A60A3181F"><path id="_B883E479-CDA0-426E-9358-42BA0ABC1AAD_1" d="M530.3906250000005 180.00000000000003L574.3750000000005 180.00000000000003 " stroke="#000000" fill="none" stroke-width="2" stroke-linecap="round" stroke-linejoin="round" marker-start="url(#_B883E479-CDA0-426E-9358-42BA0ABC1AADstart)" marker-end="url(#_B883E479-CDA0-426E-9358-42BA0ABC1AADend)"/></g><text id="_B883E479-CDA0-426E-9358-42BA0ABC1AADtext_name" font-size="12" x="544.3906250000005" y="166.00000000000003" oryx:edgePosition="startTop" stroke-width="0pt" letter-spacing="-0.01px" fill="#000000" text-anchor="start" transform="rotate(360 530.3906250000005 180.00000000000003)" visibility="inherit" oryx:fontSize="12"/></g><g class="children" style="overflow:hidden"/><g class="edge"/></g><g class="controls"><g class="dockers"/><g class="magnets"/></g></g></g><text id="_B6171619-F674-4980-A25E-BE53BC8D9C5B" style="stroke-width:1;fill:rgb(177,194,214);font-family:arial;font-weight:bold" font-size="12" onclick="ORYX.Plugins.CanvasTitle.openTextualAnalysis()" onmouseover="ORYX.Plugins.CanvasTitle.addToolTip('_B6171619-F674-4980-A25E-BE53BC8D9C5B')" transform="translate(10, 20)">colegio v.1.0 (com.myspace.notas.colegio)</text></g></g></svg>